# xmcd CD database file
#
# Track frame offsets:
#	150
#	12673
#	27294
#	39994
#	63290
#	76147
#	95681
#	106426
#	126882
#	144012
#	157958
#	171654
#	198213
#	214073
#	232687
#
# Disc length: 3348 seconds
#
# Revision: 0
# Processed by: cddbd v1.5.2PL0 Copyright (c) Steve Scherf et al.
# Submitted via: CDex 1.51
#
DISCID=bd0d120f
DTITLE=Various Artist - The Bombay Jazz Palace
DYEAR=1900
DGENRE=Jazz
TTITLE0=Paul Horn and Nexus - Latin Tala
TTITLE1=Volker Kriegel - Zoom
TTITLE2=George Garvarenz - Haschish Party
TTITLE3=Dave Mackay and Vicky Hamilton - Blues For Hari
TTITLE4=Dave Pike Set - Raga Jeera Swara
TTITLE5=Between - Contemplation
TTITLE6=Lalo Schifrin - Secret
TTITLE7=Grupo Batuque - Tabla Samba
TTITLE8=Yves Hyatt - Path To Ascension
TTITLE9=Shocking Blue - Acka Raga
TTITLE10=Shankar Family and Friends - Dispute and Violence
TTITLE11=Diga Rhythm Band - Tal Mala
TTITLE12=Shankar Jaikishan - Bairagi
TTITLE13=Ananda Shankar - Universal Magic
TTITLE14=Muhavishla Ravi Hatchud and The Indo Jazz Following - Bombay Palace pt.1
EXTD=
EXTT0=
EXTT1=
EXTT2=
EXTT3=
EXTT4=
EXTT5=
EXTT6=
EXTT7=
EXTT8=
EXTT9=
EXTT10=
EXTT11=
EXTT12=
EXTT13=
EXTT14=
PLAYORDER=
